<svg id="Layer_1" data-name="Layer 1" xmlns="http://www.w3.org/2000/svg" viewBox="0 0 804 1813.61"><defs><style>.cls-1,.cls-2,.cls-3{stroke:#000;stroke-miterlimit:10;stroke-width:20px;}.cls-2{fill:#65c8d0;}.cls-3{fill:none;}</style></defs><title>logo-square</title><path class="cls-1" d="M951.36,1872.15c-160.68,0-291.41-130.73-291.41-291.41V208.13H627.14a64.8,64.8,0,0,1,0-129.6h654.41a64.8,64.8,0,0,1,0,129.6h-38.79V1580.74C1242.76,1741.42,1112,1872.15,951.36,1872.15ZM627.14,81.47a61.86,61.86,0,0,0,0,123.72h35.74V1580.74c0,159.07,129.41,288.48,288.48,288.48s288.47-129.41,288.47-288.48V205.19h41.72a61.86,61.86,0,1,0,0-123.72ZM948.92,1815.74c-130,0-235.78-105.78-235.78-235.79V975.07l.08-.25c.67-1.84,68.72-184.49,235.46-212.8,104.72-17.77,184.74-93.93,233.42-154.69l2.61-3.26V1580C1184.71,1710,1078.94,1815.74,948.92,1815.74ZM716.07,975.59V1580c0,128.4,104.46,232.85,232.85,232.85s232.86-104.45,232.86-232.85V612.4C1132.55,673,1052.94,747.3,949.17,764.91,786.83,792.48,718.9,968.05,716.07,975.59Z" transform="translate(-552.35 -68.53)"/><path class="cls-1" d="M650.1,326.6" transform="translate(-552.35 -68.53)"/><path class="cls-2" d="M1183.24,608.25V1580c0,129.42-104.9,234.32-234.32,234.32S714.6,1709.37,714.6,1580V975.33S781.1,792,948.92,763.46C1056.91,745.14,1138.68,663.87,1183.24,608.25Z" transform="translate(-552.35 -68.53)"/><circle class="cls-2" cx="266.75" cy="552.44" r="38"/><circle class="cls-2" cx="367.37" cy="360.34" r="82.33"/><circle class="cls-2" cx="581.29" cy="229.46" r="48.55"/><circle class="cls-2" cx="219.25" cy="120.74" r="32.72"/><rect class="cls-2" x="500.22" y="344.3" width="132.14" height="132.14" rx="66.07"/><line class="cls-3" x1="107.75" y1="833.59" x2="295.05" y2="833.59"/><line class="cls-3" x1="107.75" y1="973.62" x2="295.05" y2="973.62"/><line class="cls-3" x1="109.61" y1="1082.29" x2="296.9" y2="1082.29"/><line class="cls-3" x1="107.59" y1="1190.96" x2="294.88" y2="1190.96"/><line class="cls-3" x1="108.61" y1="1299.63" x2="295.9" y2="1299.63"/><line class="cls-3" x1="109.61" y1="1408.3" x2="296.9" y2="1408.3"/><line class="cls-3" x1="113.59" y1="1516.97" x2="300.88" y2="1516.97"/></svg>